#!OML:ASF X:\für Bonn\!DataBase\2005_08_12_Daniel\c3d\Daniel.ASF
:FULLY-SPECIFIED
:DEGREES
17
root 3.59209 16.9268 -2.39083 -106.807 -85.0283 94.1389
lowerback 18.9788 -5.60418 -2.18169
upperback 2.67484 -8.45709 -4.51841
thorax -8.05879 -4.18118 -1.46131
lowerneck 2.86072 6.39551 -3.82865
upperneck 4.89907 8.4099 -3.33653
head 1.02366 4.02985 -0.397497
rclavicle 1.14798e-014 -5.96354e-015
rhumerus -60.4497 11.574 -99.9614
rradius 86.6782
rwrist 19.2683
rhand -27.1127 27.772
rfingers 7.12502
rthumb -0.528964 -2.20713
lclavicle 1.14798e-014 -5.96354e-015
lhumerus -47.4066 -4.8269 93.0526
lradius 118.039
lwrist 4.34509
lhand -20.7643 -15.5292
lfingers 7.12502
lthumb 5.60194 14.3768
rfemur -7.08289 -0.558941 14.6781
rtibia 45.7082
rfoot -27.7307 -3.28343
rtoes -7.6559
lfemur -37.241 4.05745 -18.3253
ltibia 91.0707
lfoot 14.264 -5.35244
ltoes -18.1956
18
root 3.59584 16.9391 -2.39047 -109.551 -84.9649 95.5015
lowerback 20.1447 -5.50889 -1.61314
upperback 3.14402 -8.30232 -4.82368
thorax -8.29951 -4.137 -2.05427
lowerneck 3.10893 6.26754 -4.14943
upperneck 5.02588 8.21212 -3.46361
head 1.01503 3.91684 -0.391838
rclavicle -6.65929e-014 1.19271e-014
rhumerus -60.0885 12.4144 -99.9987
rradius 86.5654
rwrist 19.302
rhand -27.4487 27.4222
rfingers 7.12502
rthumb -0.853474 -2.5558
lclavicle -6.65929e-014 1.19271e-014
lhumerus -46.8704 -5.19643 92.375
lradius 118.333
lwrist 4.74523
lhand -20.808 -15.5141
lfingers 7.12502
lthumb 5.55968 14.393
rfemur -5.04549 -0.00920582 14.7883
rtibia 44.7718
rfoot -27.5785 -3.7268
rtoes -7.81382
lfemur -39.2363 4.68493 -18.1878
ltibia 95.2946
lfoot 17.6003 -6.33871
ltoes -17.9611
19
root 3.59896 16.9501 -2.3854 -113.896 -84.8288 98.3537
lowerback 21.4069 -5.34558 -0.996415
upperback 3.64901 -8.04946 -5.15633
thorax -8.54455 -4.05068 -2.73855
lowerneck 3.22978 6.09476 -4.57691
upperneck 5.32596 7.96204 -3.53752
head 1.0754 3.76776 -0.345832
rclavicle -2.57178e-015 1.82882e-014
rhumerus -59.5525 13.2104 -100.03
rradius 86.225
rwrist 19.2497
rhand -27.6766 27.2618
rfingers 7.12502
rthumb -1.07359 -2.71529
lclavicle -2.57178e-015 1.82882e-014
lhumerus -46.3005 -5.67024 91.7252
lradius 118.649
lwrist 5.28813
lhand -20.664 -15.5176
lfingers 7.12502
lthumb 5.69879 14.3858
rfemur -2.91677 0.620923 14.8818
rtibia 43.8394
rfoot -27.3883 -4.14589
rtoes -8.12954
lfemur -41.1581 5.46853 -18.0528
ltibia 99.507
lfoot 20.2406 -7.52181
ltoes -18.6394
20
root 3.60081 16.9557 -2.37382 -119.883 -84.6242 102.775
lowerback 22.7171 -5.1393 -0.290568
upperback 4.18848 -7.71691 -5.50347
thorax -8.76529 -3.9327 -3.52994
lowerneck 3.27994 5.90249 -5.08653
upperneck 5.74183 7.6899 -3.55007
head 1.17946 3.6 -0.264045
rclavicle 2.67614e-014 1.90833e-014
rhumerus -58.8496 14.1036 -100.071
rradius 85.718
rwrist 19.0163
rhand -27.7647 27.1492
rfingers 7.12502
rthumb -1.15862 -2.82744
lclavicle 2.67614e-014 1.90833e-014
lhumerus -45.6581 -6.20159 91.0521
lradius 118.936
lwrist 5.72277
lhand -20.4691 -15.5408
lfingers 7.12502
lthumb 5.88697 14.3574
rfemur -0.736812 1.34473 14.9921
rtibia 42.9057
rfoot -27.149 -4.51583
rtoes -8.42641
lfemur -43.0442 6.4603 -17.8582
ltibia 103.7
lfoot 22.4367 -8.86385
ltoes -18.4256
21
root 3.59966 16.9603 -2.35888 -126.655 -84.3105 107.971
lowerback 23.987 -4.89344 0.425259
upperback 4.75969 -7.31991 -5.83553
thorax -8.89692 -3.7871 -4.35892
lowerneck 3.26142 5.70741 -5.67926
upperneck 6.23519 7.41805 -3.49419
head 1.31606 3.42585 -0.144838
rclavicle 1.47846e-014 -1.98785e-014
rhumerus -57.977 15.1223 -100.029
rradius 85.1238
rwrist 18.6685
rhand -27.7255 26.9534
rfingers 7.12502
rthumb -1.12079 -3.02342
lclavicle 1.47846e-014 -1.98785e-014
lhumerus -44.9209 -6.78118 90.3924
lradius 119.208
lwrist 6.18309
lhand -20.2553 -15.6159
lfingers 7.12502
lthumb 6.09331 14.2765
rfemur 1.43261 2.1327 15.1133
rtibia 41.9877
rfoot -26.8949 -4.8535
rtoes -8.86904
lfemur -44.9359 7.67898 -17.6047
ltibia 107.8
lfoot 24.3058 -10.323
ltoes -17.1514
22
root 3.5962 16.9707 -2.34174 -133.359 -83.8493 113.117
lowerback 25.2112 -4.62198 1.10352
upperback 5.33045 -6.89131 -6.16022
thorax -8.96756 -3.62659 -5.19634
lowerneck 3.23944 5.5265 -6.30439
upperneck 6.83139 7.16677 -3.42286
head 1.48762 3.25369 -0.0135566
rclavicle -8.84592e-015 -3.33958e-014
rhumerus -57.0322 16.2985 -99.9743
rradius 84.4751
rwrist 18.2855
rhand -27.8134 26.7714
rfingers 7.12502
rthumb -1.20567 -3.2049
lclavicle -8.84592e-015 -3.33958e-014
lhumerus -44.1557 -7.34646 89.7185
lradius 119.498
lwrist 6.5885
lhand -19.9879 -15.7364
lfingers 7.12502
lthumb 6.3515 14.1484
rfemur 3.5682 2.97809 15.2047
rtibia 41.0734
rfoot -26.6041 -5.1391
rtoes -9.18625
lfemur -46.7984 9.10873 -17.3161
ltibia 111.735
lfoot 25.9316 -11.8411
ltoes -16.5253
23
root 3.5915 16.9783 -2.32431 -139.55 -83.2803 117.76
lowerback 26.4 -4.33361 1.71021
upperback 5.90789 -6.44969 -6.44509
thorax -8.9684 -3.45712 -5.97752
lowerneck 3.17378 5.34324 -6.90098
upperneck 7.56923 6.92539 -3.46446
head 1.72167 3.07305 0.0826535
rclavicle 1.99779e-014 -9.54166e-015
rhumerus -55.9992 17.5338 -99.886
rradius 83.7288
rwrist 18.0361
rhand -28.0505 26.5557
rfingers 7.12502
rthumb -1.43464 -3.41926
lclavicle 1.99779e-014 -9.54166e-015
lhumerus -43.3824 -7.89155 89.04
lradius 119.832
lwrist 7.04711
lhand -19.7697 -15.9447
lfingers 7.12502
lthumb 6.56212 13.9336
rfemur 5.67693 3.97945 15.3775
rtibia 40.1737
rfoot -26.3562 -5.56536
rtoes -9.61981
lfemur -48.651 10.7511 -16.9226
ltibia 115.517
lfoot 27.5825 -13.2761
ltoes -16.5477
24
root 3.58554 16.9855 -2.30734 -144.857 -82.6136 121.544
lowerback 27.5636 -4.03349 2.23011
upperback 6.47648 -6.00929 -6.69498
thorax -8.92537 -3.28457 -6.68955
lowerneck 3.10916 5.19815 -7.54258
upperneck 8.41708 6.73799 -3.51161
head 1.99462 2.90642 0.185834
rclavicle 3.73467e-014 4.21423e-014
rhumerus -54.8638 18.7921 -99.7333
rradius 82.911
rwrist 17.9302
rhand -28.3128 26.3852
rfingers 7.12502
rthumb -1.68802 -3.58792
lclavicle 3.73467e-014 4.21423e-014
lhumerus -42.6058 -8.4006 88.3644
lradius 120.182
lwrist 7.50126
lhand -19.6311 -16.2983
lfingers 7.12502
lthumb 6.69597 13.5758
rfemur 7.75299 5.10699 15.6112
rtibia 39.2746
rfoot -26.085 -6.11879
rtoes -9.99145
lfemur -50.7451 12.6188 -16.4602
ltibia 119.176
lfoot 29.5527 -14.708
ltoes -16.9156
25
root 3.57773 16.9968 -2.29209 -149.449 -81.8384 124.615
lowerback 28.7353 -3.7009 2.67888
upperback 7.02067 -5.54816 -6.95105
thorax -8.87819 -3.10083 -7.39335
lowerneck 3.14541 5.07229 -8.09127
upperneck 9.35129 6.57169 -3.60266
head 2.28855 2.74178 0.258167
rclavicle 4.02539e-015 3.33958e-014
rhumerus -53.6779 19.895 -99.5607
rradius 82.0645
rwrist 17.9067
rhand -28.375 26.307
rfingers 7.12502
rthumb -1.74809 -3.66554
lclavicle 4.02539e-015 3.33958e-014
lhumerus -41.9252 -8.94896 87.6465
lradius 120.551
lwrist 7.94178
lhand -19.6195 -16.8161
lfingers 7.12502
lthumb 6.70718 13.0577
rfemur 9.79503 6.19753 15.8006
rtibia 38.3926
rfoot -25.7798 -6.60187
rtoes -10.3555
lfemur -53.0208 14.7868 -15.8853
ltibia 122.739
lfoot 31.7961 -16.3351
ltoes -17.2529
26
root 3.56951 17.0096 -2.2769 -153.682 -81.0063 127.334
lowerback 30.0361 -3.36955 3.11651
upperback 7.30161 -5.08215 -7.49766
thorax -8.69859 -2.86115 -7.8132
lowerneck 3.375 4.99998 -8.61712
upperneck 10.2862 6.44791 -3.64726
head 2.5526 2.59573 0.334976
rclavicle -2.68359e-015 2.38542e-014
rhumerus -52.468 20.9625 -99.4061
rradius 81.18
rwrist 17.8973
rhand -28.2055 26.3853
rfingers 7.12502
rthumb -1.58443 -3.58853
lclavicle -2.68359e-015 2.38542e-014
lhumerus -41.3274 -9.56172 86.8629
lradius 120.949
lwrist 8.4328
lhand -19.729 -17.3573
lfingers 7.12502
lthumb 6.6014 12.5198
rfemur 11.7718 7.05688 15.899
rtibia 37.5286
rfoot -25.3876 -6.857
rtoes -10.764
lfemur -55.4693 17.2517 -15.1124
ltibia 126.129
lfoot 34.4091 -18.0427
ltoes -17.9526
27
root 3.5604 17.0215 -2.26039 -157.624 -80.069 129.75
lowerback 31.2408 -3.01031 3.55502
upperback 7.82129 -4.59211 -7.8076
thorax -8.61047 -2.65698 -8.53144
lowerneck 3.71989 4.97803 -9.05551
upperneck 11.2215 6.37307 -3.68859
head 2.80254 2.47307 0.394769
rclavicle 1.11816e-014 -1.82882e-014
rhumerus -50.926 22.1322 -99.2811
rradius 79.8685
rwrist 17.7234
rhand -27.9924 26.7073
rfingers 7.12502
rthumb -1.37855 -3.26794
lclavicle 1.11816e-014 -1.82882e-014
lhumerus -40.6661 -10.2379 86.1211
lradius 121.304
lwrist 8.84938
lhand -19.9276 -17.8836
lfingers 7.12502
lthumb 6.40969 11.9994
rfemur 13.6938 7.66748 15.8083
rtibia 36.6646
rfoot -24.8375 -6.76897
rtoes -11.1839
lfemur -58.0565 20.1052 -14.1803
ltibia 129.258
lfoot 37.4987 -19.6813
ltoes -19.3516
28
root 3.54886 17.0291 -2.24338 -161.28 -79.0949 131.859
lowerback 32.4663 -2.66243 4.00503
upperback 8.35396 -4.1174 -8.12812
thorax -8.4931 -2.4594 -9.27361
lowerneck 4.0678 5.00626 -9.36802
upperneck 12.2338 6.36811 -3.78045
head 3.08685 2.37842 0.418115
rclavicle 2.03754e-015 -1.66979e-014
rhumerus -49.2259 23.3902 -99.157
rradius 78.4093
rwrist 17.35
rhand -27.6698 27.1539
rfingers 7.12502
rthumb -1.06696 -2.82322
lclavicle 2.03754e-015 -1.66979e-014
lhumerus -39.9781 -10.933 85.2854
lradius 121.717
lwrist 9.33207
lhand -20.1144 -18.4161
lfingers 7.12502
lthumb 6.22933 11.4723
rfemur 15.6386 8.19389 15.6852
rtibia 35.7353
rfoot -24.2431 -6.60084
rtoes -11.6933
lfemur -60.7146 23.2013 -13.101
ltibia 132.06
lfoot 41.0907 -21.0822
ltoes -19.6487
